<?xml version="1.0" encoding="UTF-8" standalone="no"?>
<svg
   xmlns:dc="http://purl.org/dc/elements/1.1/"
   xmlns:cc="http://creativecommons.org/ns#"
   xmlns:rdf="http://www.w3.org/1999/02/22-rdf-syntax-ns#"
   xmlns:svg="http://www.w3.org/2000/svg"
   xmlns="http://www.w3.org/2000/svg"
   xmlns:sodipodi="http://sodipodi.sourceforge.net/DTD/sodipodi-0.dtd"
   xmlns:inkscape="http://www.inkscape.org/namespaces/inkscape"
   version="1.1"
   x="0px"
   y="0px"
   viewBox="0 0 100 100"
   enable-background="new 0 0 100 100"
   xml:space="preserve"
   id="svg2"
   inkscape:version="0.91 r13725"
   sodipodi:docname="admonition-tip.svg"><metadata
     id="metadata16"><rdf:RDF><cc:Work
         rdf:about=""><dc:format>image/svg+xml</dc:format><dc:type
           rdf:resource="http://purl.org/dc/dcmitype/StillImage" /><dc:title /></cc:Work></rdf:RDF></metadata><defs
     id="defs14" /><sodipodi:namedview
     pagecolor="#ffffff"
     bordercolor="#666666"
     borderopacity="1"
     objecttolerance="10"
     gridtolerance="10"
     guidetolerance="10"
     inkscape:pageopacity="0"
     inkscape:pageshadow="2"
     inkscape:window-width="1600"
     inkscape:window-height="876"
     id="namedview12"
     showgrid="false"
     inkscape:zoom="2.36"
     inkscape:cx="-40.254237"
     inkscape:cy="50"
     inkscape:window-x="0"
     inkscape:window-y="1224"
     inkscape:window-maximized="1"
     inkscape:current-layer="svg2" /><g
     id="g3335"
     transform="matrix(1.0651896,0,0,1.0651896,-3.2594795,-3.2268512)"
     style="fill:#dddd00;fill-opacity:1"><path
       d="m 72.68,6.65635 c -1.0854,-1.0854 -2.5587,-1.6956 -4.095,-1.6956 -1.5354,0 -3.0087,0.6102 -4.0959,1.6974 L 44.645,26.50405 c -2.2617,2.2617 -2.2617,5.9283 9e-4,8.1909 2.2608,2.2608 5.9274,2.2617 8.19,-9e-4 l 15.75,-15.7509 11.9709,11.9718 -15.7509,15.75 c -2.2626,2.2626 -2.2626,5.9283 -9e-4,8.19 1.1313,1.1313 2.6127,1.6974 4.0959,1.6974 1.4814,0 2.9646,-0.5661 4.095,-1.6965 l 19.8459,-19.8459 c 1.0872,-1.0872 1.6974,-2.5605 1.6974,-4.0959 0,-1.5363 -0.6102,-3.0096 -1.6956,-4.095 L 72.68,6.65635 Z"
       id="path6"
       inkscape:connector-curvature="0"
       style="fill:#dddd00;fill-opacity:1" /><path
       d="m 31.415,94.03825 c 1.5354,0 3.0087,-0.6102 4.0959,-1.6974 l 19.845,-19.8459 c 2.2617,-2.2617 2.2617,-5.9283 -9e-4,-8.1909 -2.2608,-2.2608 -5.9274,-2.2617 -8.19,9e-4 l -15.75,15.7509 -11.9718,-11.9709 15.7509,-15.75 c 2.2626,-2.2626 2.2626,-5.9283 9e-4,-8.19 -2.2617,-2.2617 -5.9292,-2.2626 -8.1909,-9e-4 L 7.1582,63.98995 c -1.0872,1.0872 -1.6974,2.5605 -1.6974,4.0959 0,1.5363 0.6102,3.0096 1.6956,4.095 L 27.32,92.34355 c 1.0854,1.0854 2.5587,1.6947 4.095,1.6947 z"
       id="path8"
       inkscape:connector-curvature="0"
       style="fill:#dddd00;fill-opacity:1" /><path
       d="m 31.4141,68.08585 c 1.1313,1.1304 2.6136,1.6965 4.0959,1.6965 1.4823,0 2.9646,-0.5661 4.095,-1.6965 l 29.6118,-29.6118 c 2.2617,-2.2617 2.2617,-5.9283 0,-8.1909 -2.2626,-2.2608 -5.9301,-2.2608 -8.1909,0 l -29.6118,29.6127 c -2.2617,2.2617 -2.2617,5.9283 0,8.19 z"
       id="path10"
       inkscape:connector-curvature="0"
       style="fill:#dddd00;fill-opacity:1" /></g></svg>