<svg xmlns="http://www.w3.org/2000/svg" xmlns:xlink="http://www.w3.org/1999/xlink" version="1.1" x="0px" y="0px" viewBox="0 0 100 125" enable-background="new 0 0 100 100" xml:space="preserve"><path d="M88.8,21.3H11.3c-3.4,0-6.3,2.8-6.3,6.3v45c0,3.4,2.8,6.3,6.3,6.3h77.5c3.4,0,6.3-2.8,6.3-6.3v-45  C95,24.1,92.2,21.3,88.8,21.3z M90,72.5c0,0.7-0.6,1.3-1.3,1.3H11.3c-0.7,0-1.3-0.6-1.3-1.3v-45c0-0.7,0.6-1.3,1.3-1.3h77.5  c0.7,0,1.3,0.6,1.3,1.3V72.5z"/><path d="M27.5,41.3H20c-2.1,0-3.7,1.7-3.7,3.7v3.8c0,2.1,1.7,3.7,3.7,3.7h7.5c2.1,0,3.7-1.7,3.7-3.7V45  C31.3,42.9,29.6,41.3,27.5,41.3z M28.8,48.8c0,0.7-0.6,1.2-1.2,1.2H20c-0.7,0-1.2-0.6-1.2-1.2V45c0-0.7,0.6-1.2,1.2-1.2h7.5  c0.7,0,1.2,0.6,1.2,1.2V48.8z"/><path d="M30,56.3H17.5c-0.7,0-1.3,0.6-1.3,1.3s0.6,1.3,1.3,1.3H30c0.7,0,1.3-0.6,1.3-1.3S30.7,56.3,30,56.3z"/><path d="M47.5,56.3H35c-0.7,0-1.3,0.6-1.3,1.3s0.6,1.3,1.3,1.3h12.5c0.7,0,1.3-0.6,1.3-1.3S48.2,56.3,47.5,56.3z"/><path d="M65,56.3H52.5c-0.7,0-1.3,0.6-1.3,1.3s0.6,1.3,1.3,1.3H65c0.7,0,1.3-0.6,1.3-1.3S65.7,56.3,65,56.3z"/><path d="M82.5,56.3H70c-0.7,0-1.3,0.6-1.3,1.3s0.6,1.3,1.3,1.3h12.5c0.7,0,1.3-0.6,1.3-1.3S83.2,56.3,82.5,56.3z"/><path d="M85,40H75c-0.7,0-1.3,0.6-1.3,1.3s0.6,1.3,1.3,1.3h10c0.7,0,1.3-0.6,1.3-1.3S85.7,40,85,40z"/><path d="M85,35H75c-0.7,0-1.3,0.6-1.3,1.3s0.6,1.3,1.3,1.3h10c0.7,0,1.3-0.6,1.3-1.3S85.7,35,85,35z"/><path d="M85,30H75c-0.7,0-1.3,0.6-1.3,1.3s0.6,1.3,1.3,1.3h10c0.7,0,1.3-0.6,1.3-1.3S85.7,30,85,30z"/><text x="0" y="115" fill="#000000" font-size="5px" font-weight="bold" font-family="'Helvetica Neue', Helvetica, Arial-Unicode, Arial, Sans-serif">Created by Arthur Shlain</text><text x="0" y="120" fill="#000000" font-size="5px" font-weight="bold" font-family="'Helvetica Neue', Helvetica, Arial-Unicode, Arial, Sans-serif">from the Noun Project</text></svg>