<svg xmlns="http://www.w3.org/2000/svg" xmlns:xlink="http://www.w3.org/1999/xlink" version="1.1" x="0px" y="0px" viewBox="0 0 100 100" enable-background="new 0 0 100 100" xml:space="preserve"><path d="M7.534,68.23h83.96V31.093H7.534V68.23z M49.516,32.236c9.623,0,17.424,7.801,17.424,17.424  c0,9.628-7.801,17.429-17.424,17.429c-9.626,0-17.427-7.801-17.427-17.429C32.088,40.037,39.889,32.236,49.516,32.236z"></path><path d="M3.218,26.603v46.118H95.81V26.603H3.218z M94.14,69.553c0,0.732-0.592,1.322-1.322,1.322H6.21  c-0.732,0-1.323-0.59-1.323-1.322V29.771c0-0.731,0.591-1.323,1.323-1.323h86.607c0.731,0,1.324,0.592,1.324,1.323v39.782H94.14z"></path><g><path d="M51.813,42.207c-2.12,0-3.719,1.47-4.799,4.41h7.319l-1.049,2.13h-6.81l-0.15,1.35h6.39l-1.051,2.13h-5.339   c0.24,3.299,1.6,4.949,4.08,4.949c1.359,0,3.01-0.67,4.95-2.01l-0.78,4.439c-1.619,0.74-3.21,1.111-4.77,1.111   c-2.459,0-4.349-0.811-5.669-2.431c-1.16-1.46-1.83-3.479-2.01-6.06h-2.25l1.049-2.13h1.23l0.18-1.35h-1.709l1.049-2.13h1.111   c0.659-2.34,1.709-4.21,3.149-5.61c1.659-1.6,3.6-2.4,5.819-2.4c1.961,0,3.76,0.641,5.4,1.92l-1.83,3.39   C54.224,42.776,53.054,42.207,51.813,42.207z"></path></g></svg>